<?xml version="1.0" standalone="no"?>
<!DOCTYPE svg PUBLIC "-//W3C//DTD SVG 20010904//EN"
 "http://www.w3.org/TR/2001/REC-SVG-20010904/DTD/svg10.dtd">
<svg version="1.0" xmlns="http://www.w3.org/2000/svg"
 width="260.000000pt" height="260.000000pt" viewBox="0 0 260.000000 260.000000"
 preserveAspectRatio="xMidYMid meet">
<metadata>
Created by potrace 1.14, written by Peter Selinger 2001-2017
</metadata>
<g transform="translate(0.000000,260.000000) scale(0.100000,-0.100000)"
fill="#000000" stroke="none">
<path d="M1800 1969 c0 -5 5 -7 10 -4 6 3 10 8 10 11 0 2 -4 4 -10 4 -5 0 -10
-5 -10 -11z"/>
<path d="M1691 1956 c-9 -11 -6 -12 14 -8 14 2 25 8 25 13 0 14 -26 11 -39 -5z"/>
<path d="M1857 1939 c7 -7 15 -10 18 -7 3 3 -2 9 -12 12 -14 6 -15 5 -6 -5z"/>
<path d="M1485 1930 c3 -5 8 -10 11 -10 2 0 4 5 4 10 0 6 -5 10 -11 10 -5 0
-7 -4 -4 -10z"/>
<path d="M1570 1931 c0 -9 39 -31 56 -31 12 0 2 18 -13 24 -10 3 -24 9 -30 12
-7 3 -13 1 -13 -5z"/>
<path d="M1779 1916 l20 -21 -56 2 c-50 1 -59 -2 -85 -28 -30 -29 -62 -38 -73
-19 -14 23 -59 2 -49 -23 3 -9 10 -15 14 -12 5 3 11 1 15 -5 3 -5 1 -10 -5
-10 -6 0 -10 -10 -8 -22 2 -19 -2 -23 -22 -23 -14 0 -31 -4 -37 -8 -8 -5 -13
-3 -13 5 0 16 15 40 24 39 18 -3 26 0 26 9 0 6 -9 10 -20 10 -11 0 -20 5 -20
11 0 5 4 8 9 4 5 -3 12 -1 15 4 4 5 2 12 -4 16 -6 4 -8 11 -5 16 4 5 -3 9 -14
9 -12 0 -21 7 -21 15 0 8 -3 15 -8 15 -14 0 -43 -41 -37 -53 7 -13 -12 9 -34
41 -15 22 -76 29 -68 7 4 -9 -1 -11 -14 -8 -14 4 -22 0 -26 -15 -3 -11 -11
-23 -19 -26 -7 -3 -11 -12 -8 -19 3 -8 -2 -17 -11 -21 -23 -9 -9 -26 22 -26
14 0 34 -9 44 -21 20 -23 41 -17 37 9 -2 12 5 18 22 19 14 1 36 5 49 9 16 5
22 4 18 -3 -4 -6 -1 -13 7 -16 20 -8 9 -43 -17 -54 -12 -5 -39 -6 -59 -3 -41
7 -51 4 -61 -22 -7 -21 -44 -19 -58 3 -7 11 -9 9 -9 -8 0 -12 -9 -27 -21 -33
-17 -10 -21 -8 -26 9 -3 12 -9 21 -14 21 -14 0 -10 -22 8 -42 9 -10 13 -21 9
-25 -4 -4 -10 -2 -14 4 -5 7 -13 9 -21 4 -20 -13 -2 -33 23 -27 31 8 52 -12
65 -58 11 -43 8 -56 -15 -56 -8 0 -14 -7 -14 -15 0 -8 -3 -14 -7 -13 -5 1 -30
-3 -58 -7 -27 -5 -54 -9 -59 -10 -6 0 -14 -15 -18 -32 -5 -18 -12 -33 -17 -33
-5 0 -12 -16 -15 -35 -4 -19 -11 -35 -16 -35 -6 0 -10 -11 -10 -25 0 -17 -5
-25 -18 -25 -42 0 -46 -30 -12 -80 10 -14 16 -36 15 -50 -1 -14 -3 -33 -4 -42
-1 -14 -10 -18 -38 -18 -21 0 -50 -6 -65 -14 -15 -8 -28 -10 -30 -5 -2 6 -20
3 -43 -7 -29 -12 -54 -14 -92 -10 -39 5 -53 3 -53 -6 0 -9 -3 -9 -9 1 -8 12
-12 12 -25 2 -8 -7 -20 -10 -25 -6 -6 3 -23 -2 -38 -12 -25 -16 -26 -16 -21
-1 6 15 4 16 -35 2 -46 -17 -137 -25 -137 -12 0 4 -11 2 -25 -4 -19 -8 -31 -8
-50 0 -14 6 -25 8 -25 4 0 -11 -81 -9 -98 2 -7 4 -19 3 -27 -4 -10 -8 -15 -8
-20 0 -4 6 -13 9 -21 6 -7 -3 -16 -1 -19 4 -3 6 -15 6 -30 0 -14 -5 -25 -7
-25 -4 0 4 -7 1 -15 -6 -8 -6 -19 -9 -25 -5 -6 4 -10 -10 -10 -39 0 -43 6 -52
34 -47 4 1 16 -4 25 -11 11 -9 10 -6 -3 10 -14 16 -16 22 -5 22 21 -1 46 -23
42 -37 -2 -6 1 -15 8 -19 8 -5 10 -3 5 7 -4 8 -1 6 7 -4 8 -9 19 -17 24 -17 5
0 18 -9 28 -20 10 -11 14 -20 10 -20 -4 0 0 -9 10 -20 10 -11 15 -20 11 -20
-4 0 2 -12 13 -26 12 -15 21 -35 21 -45 0 -26 136 -163 155 -155 9 3 15 0 15
-8 0 -7 8 -20 17 -27 11 -10 14 -10 9 -1 -4 6 -2 12 3 12 6 0 11 -11 11 -25 0
-17 4 -23 14 -19 9 3 17 -6 24 -25 6 -18 7 -31 2 -31 -5 0 -7 -6 -4 -14 3 -8
1 -17 -5 -21 -15 -9 -14 -28 2 -19 9 5 9 4 1 -5 -6 -7 -23 -13 -38 -15 -14 -1
-28 -5 -31 -8 -3 -3 -23 -3 -45 -1 -34 3 -39 2 -33 -13 4 -12 3 -15 -6 -10 -7
4 -23 9 -37 11 -20 2 -23 -1 -18 -18 4 -13 2 -17 -5 -13 -6 4 -13 -4 -17 -19
-3 -14 -9 -25 -13 -25 -10 0 -8 -42 3 -59 5 -7 5 -16 -1 -20 -15 -10 -9 -28
17 -51 17 -15 20 -20 7 -16 -16 5 -16 3 -2 -24 8 -16 25 -36 37 -46 17 -12 18
-15 5 -10 -12 4 -17 2 -15 -6 3 -7 15 -15 29 -19 13 -4 238 -7 501 -8 l476 -1
-2 23 c-4 38 -57 119 -73 113 -11 -5 -13 -1 -8 16 6 18 4 20 -15 15 -15 -4
-20 -2 -17 7 3 8 -6 18 -19 25 -14 6 -22 16 -19 21 3 6 -1 10 -9 10 -8 0 -21
8 -28 18 -7 9 -31 30 -53 46 -22 17 -43 35 -47 40 -4 6 -10 7 -14 4 -3 -4 -16
4 -28 16 -11 13 -31 26 -44 30 -12 4 -20 11 -17 16 3 4 -12 16 -33 26 -20 9
-59 32 -85 50 -26 18 -54 31 -61 28 -8 -3 -16 4 -19 16 -4 17 -10 20 -28 15
-13 -4 -19 -3 -15 3 6 10 -29 25 -52 23 -6 -1 -12 5 -12 13 0 9 -11 23 -24 31
-24 16 -50 68 -39 79 4 3 1 6 -5 6 -14 0 10 61 24 62 5 0 22 11 38 25 16 13
35 22 43 19 8 -3 11 -1 8 4 -3 6 1 10 9 10 9 0 16 -5 16 -10 0 -6 8 -10 17 -8
11 2 22 -8 31 -24 12 -25 22 -32 43 -30 3 1 19 -12 34 -28 16 -17 35 -30 42
-30 7 0 13 -7 13 -15 0 -8 5 -15 10 -15 6 0 25 -16 42 -35 17 -20 33 -33 36
-30 3 3 10 -5 17 -18 6 -12 17 -21 24 -19 7 1 11 -3 8 -10 -2 -7 9 -25 24 -41
16 -15 29 -34 29 -42 0 -8 15 -30 33 -49 17 -19 40 -47 50 -61 11 -15 28 -25
42 -25 14 0 25 -4 25 -10 0 -5 -7 -7 -15 -4 -9 4 -15 0 -15 -10 0 -15 4 -18
33 -20 6 -1 15 -5 20 -11 4 -6 10 -5 16 4 8 13 12 13 26 1 14 -12 18 -12 26 1
8 10 8 7 3 -11 -7 -24 -6 -24 17 -8 13 8 25 22 25 29 1 8 2 18 3 23 0 5 10 1
20 -8 11 -10 25 -15 32 -10 9 5 10 2 6 -9 -4 -10 0 -20 10 -25 9 -5 16 -22 16
-38 0 -68 -7 -134 -15 -134 -4 0 -8 -7 -8 -15 0 -8 -3 -15 -7 -15 -5 0 -13
-11 -20 -25 l-11 -25 119 0 c65 0 118 3 117 8 0 4 2 15 7 26 6 13 3 21 -9 28
-9 5 -14 14 -10 20 4 7 9 6 15 -3 17 -28 20 1 6 50 -8 28 -11 48 -6 46 4 -3
13 5 20 17 7 13 17 26 23 31 8 5 6 10 -4 17 -13 8 -12 10 3 10 9 0 17 4 17 10
0 5 11 12 25 16 14 3 25 11 25 16 0 6 12 22 28 37 15 15 43 46 62 69 31 37 61
58 45 32 -3 -5 -2 -10 4 -10 5 0 13 5 16 10 8 13 42 13 50 -1 4 -5 0 -18 -8
-27 -22 -25 -27 -51 -28 -133 -1 -41 -5 -80 -11 -87 -7 -8 -7 -17 2 -27 7 -9
10 -18 6 -22 -3 -3 -6 -1 -6 5 0 6 -18 -7 -40 -28 -22 -21 -48 -41 -58 -44
-10 -3 -26 -19 -35 -36 l-18 -30 283 0 c156 0 289 4 297 9 16 10 8 56 -12 64
-7 2 -41 -2 -77 -9 -36 -7 -72 -11 -82 -8 -9 3 -19 1 -22 -5 -4 -5 -21 -6 -43
-1 -24 6 -42 5 -50 -2 -9 -7 -13 -7 -13 1 0 7 -13 17 -29 22 -22 8 -28 15 -24
27 6 15 4 15 -9 4 -22 -18 -33 2 -12 22 14 15 14 16 0 16 -18 0 -21 15 -6 25
5 3 7 19 3 35 -6 32 7 40 26 16 10 -12 17 -12 44 -2 18 8 59 16 91 20 33 4 64
13 70 21 6 7 41 23 79 35 37 12 67 26 67 31 0 5 6 9 14 9 21 0 55 62 68 124 8
35 17 56 26 56 26 0 6 23 -24 27 -16 2 -44 13 -62 24 -18 10 -40 19 -48 19 -8
0 -14 5 -14 10 0 6 -7 10 -15 10 -8 0 -15 5 -15 11 0 5 -4 7 -10 4 -5 -3 -30
3 -54 13 -58 26 -111 38 -102 23 4 -6 2 -11 -4 -11 -7 0 -9 8 -5 21 5 15 4 19
-4 14 -6 -3 -28 -8 -49 -10 -30 -3 -33 -1 -18 7 17 10 17 12 -9 34 -28 24 -27
28 9 24 15 -1 17 3 13 23 -5 16 0 30 13 45 12 12 16 23 10 27 -6 3 -10 19 -10
36 0 16 -4 29 -10 29 -5 0 -10 -16 -10 -35 0 -36 -13 -47 -24 -20 -7 19 -22
19 -30 0 -3 -8 2 -22 11 -30 12 -12 13 -19 4 -28 -8 -8 -11 -8 -11 1 0 7 -6
12 -14 12 -19 0 -27 37 -10 44 15 6 21 116 6 116 -5 0 -18 10 -31 21 -16 15
-21 28 -17 44 4 14 0 28 -9 35 -8 7 -13 15 -10 19 2 4 -9 15 -26 25 -16 9 -29
25 -29 34 0 11 3 13 8 6 4 -6 21 -19 39 -27 17 -9 41 -30 53 -47 l21 -30 -21
-8 -22 -8 25 -17 c16 -10 28 -13 32 -7 3 6 13 10 21 10 20 0 76 -61 70 -77 -7
-18 14 -63 31 -63 17 0 16 10 -4 32 -23 26 -5 42 30 29 15 -6 27 -9 27 -7 0 3
26 -8 58 -24 38 -18 61 -25 69 -18 8 6 18 3 32 -11 28 -28 41 -26 41 5 0 14 4
23 9 20 5 -3 11 5 13 19 3 15 1 25 -6 25 -6 0 16 13 49 29 62 30 125 80 125
100 0 20 -20 11 -32 -14 -22 -49 -114 -69 -200 -43 -38 11 -39 13 -33 42 42
187 46 296 15 380 -23 61 -41 73 -146 100 -79 20 -77 21 -113 -10 -36 -30 -44
-12 -11 24 11 12 20 25 20 30 0 18 56 65 99 85 41 18 50 19 115 7 65 -12 75
-17 121 -64 28 -28 59 -68 70 -89 24 -46 41 -49 21 -4 -28 65 -39 87 -46 87
-4 0 -10 9 -13 21 -3 11 -15 23 -26 26 -12 3 -21 12 -21 20 0 9 -6 13 -15 9
-20 -7 -19 13 2 36 15 17 15 18 -4 18 -27 0 -46 24 -38 49 8 26 -9 35 -26 14
-11 -13 -11 -17 -1 -20 19 -7 14 -19 -8 -20 -11 -1 -20 2 -20 6 0 16 -29 7
-33 -11 -3 -10 -2 -18 2 -18 4 0 8 -7 8 -15 0 -20 -4 -19 -33 10 -26 26 -49
32 -58 16 -3 -5 -23 -18 -45 -29 -21 -11 -50 -32 -64 -46 -15 -15 -32 -23 -41
-20 -14 5 -14 9 1 37 9 18 21 35 27 39 6 4 11 15 11 25 0 10 6 17 14 15 8 -2
11 3 8 12 -4 9 -1 18 5 22 7 4 8 3 4 -4 -8 -13 -9 -13 56 -15 25 -1 50 -5 54
-9 11 -11 34 -10 34 2 0 6 -8 10 -17 10 -17 1 -17 1 0 11 11 6 31 9 46 7 15
-2 33 2 40 10 11 11 6 13 -35 11 -30 -2 -49 1 -52 9 -4 14 42 27 59 16 22 -13
60 -10 72 5 10 12 9 14 -5 9 -11 -5 -18 0 -23 15 -4 14 -8 17 -12 10 -7 -18
-33 -16 -33 2 0 15 -14 18 -80 16 -19 0 -42 3 -50 6 -8 4 -24 7 -35 7 -11 1
-19 7 -17 14 1 6 -3 12 -8 12 -5 0 -10 -7 -10 -16 0 -13 -3 -14 -13 -5 -10 7
-17 7 -24 0 -8 -8 -21 -8 -46 0 -19 7 -58 16 -86 20 l-52 8 20 -21z m71 -46
c0 -5 -5 -10 -11 -10 -5 0 -7 5 -4 10 3 6 8 10 11 10 2 0 4 -4 4 -10z m197
-16 c-9 -9 -28 6 -21 18 4 6 10 6 17 -1 6 -6 8 -13 4 -17z m43 5 c0 -6 -4 -7
-10 -4 -5 3 -10 11 -10 16 0 6 5 7 10 4 6 -3 10 -11 10 -16z m-720 -14 c0 -21
-13 -25 -32 -11 -20 15 -17 21 12 23 11 1 20 -4 20 -12z m731 -36 c8 -17 8
-20 -2 -17 -7 2 -13 12 -15 21 -3 23 3 21 17 -4z m-415 -78 c3 -9 8 -29 11
-45 4 -26 3 -28 -11 -17 -12 10 -17 9 -27 -7 -10 -16 -20 -19 -46 -15 -26 4
-33 2 -33 -11 0 -9 -5 -16 -11 -16 -5 0 -8 4 -4 9 3 6 1 29 -4 52 -8 37 -7 42
10 46 10 3 19 9 19 14 0 17 89 7 96 -10z m514 -26 c0 -14 -4 -25 -9 -25 -4 0
-6 11 -3 25 2 14 6 25 8 25 2 0 4 -11 4 -25z m60 -15 c0 -10 -4 -22 -10 -25
-5 -3 -10 0 -10 9 0 8 -6 17 -12 19 -10 4 -10 8 2 16 18 12 30 5 30 -19z
m-755 -9 c3 -6 -3 -10 -12 -10 -10 0 -27 -1 -37 -3 -10 -2 -21 3 -23 10 -6 14
63 17 72 3z m-115 -23 c12 -13 20 -35 20 -55 0 -29 -3 -33 -25 -33 -14 0 -25
6 -25 13 0 7 -5 5 -11 -5 -5 -10 -16 -15 -24 -11 -9 3 -22 0 -29 -6 -10 -8
-16 -9 -21 -1 -3 5 -1 10 5 10 7 0 9 8 5 20 -5 15 3 29 31 55 20 19 40 35 45
35 5 0 17 -10 29 -22z m109 -27 c-15 -5 -22 6 -14 19 6 9 10 9 16 -1 5 -8 4
-15 -2 -18z m172 -24 c-8 -8 -11 -7 -11 4 0 9 3 19 7 23 4 4 9 2 11 -4 3 -7
-1 -17 -7 -23z m-201 2 c0 -5 -9 -9 -20 -9 -11 0 -20 6 -20 14 0 9 7 12 20 9
11 -3 20 -9 20 -14z m80 12 c0 -12 -20 -25 -27 -18 -7 7 6 27 18 27 5 0 9 -4
9 -9z m360 -1 c0 -5 -7 -10 -15 -10 -8 0 -15 5 -15 10 0 6 7 10 15 10 8 0 15
-4 15 -10z m-357 -60 c7 0 18 5 24 11 18 18 86 -28 80 -53 -4 -13 3 -23 24
-33 29 -15 29 -15 29 15 0 16 4 30 9 30 11 0 9 -59 -2 -78 -5 -7 -14 -9 -20
-5 -7 4 -6 0 2 -10 9 -11 10 -17 2 -17 -15 0 -14 -47 2 -53 9 -4 8 -8 -3 -16
-10 -7 -17 -6 -22 2 -6 9 -12 9 -29 -1 -20 -13 -21 -12 -14 5 4 10 10 29 13
42 4 19 2 23 -10 18 -11 -4 -14 -1 -11 12 6 22 -23 36 -31 15 -3 -8 -10 -14
-15 -14 -6 0 -8 6 -5 14 6 17 -26 30 -40 16 -5 -5 -14 -10 -18 -10 -11 0 1 71
15 88 11 14 -5 32 -30 32 -14 0 -17 13 -6 23 3 4 15 -2 25 -13 10 -11 24 -20
31 -20z m294 0 c0 -18 -6 -30 -14 -30 -13 0 -18 41 -6 53 13 14 20 6 20 -23z
m-521 -36 c17 -14 17 -15 1 -10 -10 3 -23 6 -28 6 -5 0 -9 5 -9 10 0 14 13 12
36 -6z m477 -11 c-3 -7 0 -13 7 -13 6 0 8 -5 4 -11 -5 -8 -10 -7 -16 4 -5 9
-14 15 -21 13 -6 -1 -9 -1 -4 1 4 3 5 9 2 13 -3 5 3 8 14 7 11 0 17 -6 14 -14z
m-320 -24 c22 -40 22 -59 -3 -59 -26 0 -25 -12 1 -28 38 -24 12 -24 -29 -1
-38 22 -41 23 -59 6 -25 -22 -36 -22 -28 2 5 16 2 18 -15 14 -11 -3 -23 -9
-26 -14 -11 -19 -42 -9 -48 16 -7 28 -5 41 7 38 4 -2 7 2 7 7 0 21 39 10 42
-12 4 -28 31 -30 37 -3 4 24 21 37 40 30 8 -3 11 0 8 9 -3 8 -1 17 6 20 27 11
43 4 60 -25z m261 -80 c-16 -18 -16 -19 0 -25 12 -5 16 -14 12 -30 -3 -12 -2
-34 4 -48 11 -29 -2 -43 -19 -22 -8 10 -9 16 -1 21 17 10 0 26 -21 20 -11 -4
-19 -2 -19 4 0 6 5 12 10 12 6 1 14 2 19 3 23 3 21 16 -3 27 -26 12 -35 29
-16 29 6 0 10 7 10 15 0 8 4 15 9 15 5 0 12 10 16 23 l8 22 4 -23 c3 -14 -3
-32 -13 -43z m178 39 c-7 -7 -12 -8 -12 -2 0 6 3 14 7 17 3 4 9 5 12 2 2 -3
-1 -11 -7 -17z m-2 -48 c0 -11 -5 -20 -11 -20 -7 0 -9 -9 -6 -22 4 -12 4 -40
0 -63 -4 -32 -9 -41 -25 -41 -16 0 -19 5 -13 32 18 98 55 174 55 114z m-540
-84 c0 -3 -4 -8 -10 -11 -5 -3 -10 -1 -10 4 0 6 5 11 10 11 6 0 10 -2 10 -4z
m35 -17 c11 -17 -1 -21 -15 -4 -8 9 -8 15 -2 15 6 0 14 -5 17 -11z m341 -55
c-3 -9 -1 -12 4 -9 6 3 10 2 10 -3 0 -5 -11 -14 -25 -20 -14 -6 -25 -18 -25
-26 0 -9 -10 -20 -22 -27 -17 -9 -20 -9 -15 4 3 8 1 19 -5 25 -8 8 -7 13 6 18
12 5 14 10 5 20 -8 10 -5 15 16 20 17 4 24 11 21 20 -4 12 -2 12 15 3 12 -6
18 -17 15 -25z m144 -30 c0 -8 -4 -12 -10 -9 -5 3 -10 10 -10 16 0 5 5 9 10 9
6 0 10 -7 10 -16z m-100 -15 c0 -5 -7 -9 -17 -9 -13 0 -11 -5 8 -21 l24 -22
-27 7 c-17 4 -28 2 -31 -7 -3 -6 -6 -1 -6 12 -1 13 7 32 17 41 17 17 32 17 32
-1z m-153 -45 c-3 -3 -12 -4 -19 -1 -8 3 -5 6 6 6 11 1 17 -2 13 -5z m123 -64
c0 -5 -4 -10 -10 -10 -5 0 -10 5 -10 10 0 6 5 10 10 10 6 0 10 -4 10 -10z m59
-50 c7 -17 10 -41 7 -54 -4 -18 0 -25 19 -34 25 -12 35 -54 16 -66 -12 -8 -54
31 -46 43 3 6 1 11 -4 11 -6 0 -14 18 -17 40 -5 32 -11 40 -28 41 -17 1 -18 2
-3 6 12 3 16 10 12 24 -11 33 28 23 44 -11z m-1749 -50 c0 -5 -5 -10 -11 -10
-5 0 -7 5 -4 10 3 6 8 10 11 10 2 0 4 -4 4 -10z m1700 -20 c0 -5 -7 -10 -15
-10 -8 0 -15 5 -15 10 0 6 7 10 15 10 8 0 15 -4 15 -10z m-22 -32 c-2 -6 -10
-14 -16 -16 -7 -2 -10 2 -6 12 7 18 28 22 22 4z m-1018 -168 c0 -5 -2 -10 -4
-10 -3 0 -8 5 -11 10 -3 6 -1 10 4 10 6 0 11 -4 11 -10z m1180 -20 c0 -5 -6
-10 -14 -10 -9 0 -12 -7 -9 -21 4 -16 2 -20 -8 -17 -8 2 -15 17 -17 31 -3 23
0 27 22 27 14 0 26 -4 26 -10z m27 -66 c-3 -3 -12 -4 -19 -1 -8 3 -5 6 6 6 11
1 17 -2 13 -5z m208 -194 c-3 -5 -11 -10 -16 -10 -6 0 -7 5 -4 10 3 6 11 10
16 10 6 0 7 -4 4 -10z m105 -69 c0 -11 -4 -23 -10 -26 -5 -3 -10 -2 -10 4 0 5
-3 16 -6 25 -4 11 -1 16 10 16 9 0 16 -8 16 -19z m-20 -62 c0 -15 -34 -19 -47
-6 -12 12 -9 14 17 14 16 0 30 -4 30 -8z m-86 -45 c3 -8 -1 -14 -9 -14 -8 0
-15 2 -15 4 0 2 -3 12 -6 20 -4 12 -2 15 9 10 9 -3 18 -12 21 -20z"/>
<path d="M1626 1711 c-3 -5 3 -16 14 -26 19 -17 20 -17 20 2 0 21 -25 39 -34
24z"/>
<path d="M1596 1677 c3 -10 9 -15 12 -12 3 3 0 11 -7 18 -10 9 -11 8 -5 -6z"/>
<path d="M735 1820 c-2 -4 6 -24 19 -43 l25 -36 -69 6 c-68 6 -70 5 -80 -21
-8 -22 -54 -52 -69 -46 -2 1 -7 -2 -10 -7 -3 -4 -15 -13 -26 -19 -23 -13 -62
-82 -80 -144 -30 -100 -33 -120 -23 -126 5 -3 8 -15 5 -25 -5 -20 6 -33 42
-44 16 -5 21 -4 17 4 -5 8 0 8 20 0 16 -5 44 -8 64 -5 19 3 59 8 89 12 68 7
108 23 148 60 42 40 69 131 48 164 -15 23 -35 98 -51 185 -7 39 -58 103 -69
85z"/>
<path d="M1177 1763 c-4 -3 -7 -11 -7 -17 0 -6 5 -5 12 2 6 6 9 14 7 17 -3 3
-9 2 -12 -2z"/>
<path d="M1155 1490 c-17 -19 -17 -20 1 -20 27 0 48 16 40 29 -10 16 -20 14
-41 -9z"/>
<path d="M1915 970 c-3 -5 6 -21 22 -35 47 -41 59 -29 18 18 -26 30 -31 32
-40 17z"/>
<path d="M2130 870 c0 -5 5 -10 11 -10 5 0 7 5 4 10 -3 6 -8 10 -11 10 -2 0
-4 -4 -4 -10z"/>
<path d="M2320 855 c0 -8 4 -15 9 -15 5 0 14 7 21 15 10 13 9 15 -9 15 -12 0
-21 -6 -21 -15z"/>
<path d="M2160 840 c0 -5 5 -10 11 -10 5 0 7 5 4 10 -3 6 -8 10 -11 10 -2 0
-4 -4 -4 -10z"/>
<path d="M2093 819 c20 -28 21 -39 4 -39 -16 0 -59 -77 -47 -85 4 -3 11 1 14
8 3 6 15 26 26 42 11 17 23 36 26 44 8 16 -6 43 -26 49 -9 3 -8 -2 3 -19z"/>
<path d="M2050 823 c0 -4 5 -15 10 -23 8 -13 10 -13 10 2 0 9 -4 20 -10 23 -5
3 -10 3 -10 -2z"/>
<path d="M2157 793 c-3 -5 1 -13 8 -20 10 -10 14 -9 18 1 8 21 -15 37 -26 19z"/>
<path d="M2036 762 c-6 -17 -13 -21 -27 -17 -13 4 -19 2 -19 -9 0 -21 13 -20
40 2 13 10 21 25 18 33 -3 10 -7 7 -12 -9z"/>
<path d="M2570 700 c-8 -5 -10 -10 -5 -10 6 0 17 5 25 10 8 5 11 10 5 10 -5 0
-17 -5 -25 -10z"/>
<path d="M2454 447 c-31 -36 -47 -73 -49 -111 -2 -23 -12 -61 -23 -84 -16 -34
-17 -42 -6 -42 8 0 17 7 20 15 4 8 12 15 20 15 16 0 19 16 4 25 -17 11 -11 23
9 18 15 -4 19 0 17 20 0 15 -6 23 -13 20 -7 -3 -13 2 -13 11 0 9 4 16 10 16 5
0 7 6 5 13 -3 7 5 12 22 13 16 1 22 -1 16 -3 -20 -7 -15 -23 6 -23 10 0 21 8
25 18 3 9 9 23 12 30 4 9 -1 11 -18 7 -12 -3 -30 -1 -38 4 -12 8 -12 13 4 30
11 12 15 21 10 21 -5 -1 -14 -6 -20 -13z"/>
<path d="M2470 419 c0 -5 5 -7 10 -4 6 3 10 8 10 11 0 2 -4 4 -10 4 -5 0 -10
-5 -10 -11z"/>
<path d="M2460 320 c0 -13 18 -22 24 -11 3 5 -1 11 -9 15 -8 3 -15 1 -15 -4z"/>
</g>
</svg>
